<svg width="16" height="13" viewBox="0 0 16 13" fill="none" xmlns="http://www.w3.org/2000/svg">
<path d="M15.4095 0.52334L15.0824 9.89263C15.0317 11.3425 13.8172 12.4751 12.3673 12.4244C10.9385 12.3745 9.81892 11.1933 9.83335 9.77265L1.14101 11.819C0.736714 11.9127 0.334987 11.6642 0.238885 11.2598C0.142783 10.8554 0.393671 10.4538 0.798053 10.3577L8.37426 8.5749L8.61131 1.78685C8.64018 0.960015 9.3359 0.311243 10.1627 0.340117L15.4095 0.52334ZM13.5833 9.84028C13.5937 9.54209 13.4852 9.25198 13.2817 9.03377C13.0782 8.81556 12.7964 8.68712 12.4982 8.6767C12.2 8.66629 11.9099 8.77476 11.6917 8.97824C11.4735 9.18173 11.3451 9.46357 11.3346 9.76176C11.3242 10.0599 11.4327 10.3501 11.6362 10.5683C11.8397 10.7865 12.1215 10.9149 12.4197 10.9253C12.7179 10.9357 13.008 10.8273 13.2262 10.6238C13.4444 10.4203 13.5729 10.1385 13.5833 9.84028ZM0.789867 4.88375C0.696107 4.47945 0.949338 4.07788 1.3513 3.98404L2.44828 3.73155L2.86991 5.55909C2.91683 5.76007 3.11878 5.88673 3.31976 5.83981L4.05033 5.67067C4.25131 5.62375 4.37796 5.4218 4.33104 5.22082L3.90941 3.39327L5.00639 3.14078C5.41069 3.04702 5.81225 3.30025 5.90609 3.7022L6.74944 7.35496C6.8432 7.75926 6.58997 8.16082 6.18801 8.25466L2.53284 9.10027C2.12854 9.19403 1.72697 8.9408 1.63313 8.53884L0.789867 4.88375Z" fill="#34D399"/>
</svg>
